<mxfile host="app.diagrams.net" modified="2020-10-27T14:05:19.036Z" agent="5.0 (X11)" etag="afWgWbEl_6Wv4mwXOc5q" version="13.8.4" type="github">
  <diagram id="VRJsamEDcnqXxJipLqLd" name="Page-1">
    <mxGraphModel dx="3796" dy="2028" grid="1" gridSize="10" guides="1" tooltips="1" connect="1" arrows="1" fold="1" page="1" pageScale="1" pageWidth="850" pageHeight="1100" math="0" shadow="0">
      <root>
        <mxCell id="0" />
        <mxCell id="1" parent="0" />
        <mxCell id="VBtEt0wRcP-LA_Z2vRGT-38" style="edgeStyle=orthogonalEdgeStyle;rounded=0;orthogonalLoop=1;jettySize=auto;html=1;exitX=0.5;exitY=0;exitDx=0;exitDy=0;entryX=0.609;entryY=0.938;entryDx=0;entryDy=0;entryPerimeter=0;" parent="1" source="VBtEt0wRcP-LA_Z2vRGT-2" target="VBtEt0wRcP-LA_Z2vRGT-8" edge="1">
          <mxGeometry relative="1" as="geometry" />
        </mxCell>
        <mxCell id="VBtEt0wRcP-LA_Z2vRGT-41" style="edgeStyle=orthogonalEdgeStyle;rounded=0;orthogonalLoop=1;jettySize=auto;html=1;exitX=1;exitY=1;exitDx=0;exitDy=0;entryX=0.5;entryY=0;entryDx=0;entryDy=0;" parent="1" source="VBtEt0wRcP-LA_Z2vRGT-2" edge="1">
          <mxGeometry relative="1" as="geometry">
            <mxPoint x="370" y="50" as="targetPoint" />
          </mxGeometry>
        </mxCell>
        <mxCell id="VBtEt0wRcP-LA_Z2vRGT-43" style="edgeStyle=orthogonalEdgeStyle;rounded=0;orthogonalLoop=1;jettySize=auto;html=1;exitX=1;exitY=1;exitDx=0;exitDy=0;entryX=0.5;entryY=0;entryDx=0;entryDy=0;" parent="1" source="VBtEt0wRcP-LA_Z2vRGT-2" edge="1">
          <mxGeometry relative="1" as="geometry">
            <mxPoint x="580" y="50" as="targetPoint" />
          </mxGeometry>
        </mxCell>
        <mxCell id="VBtEt0wRcP-LA_Z2vRGT-44" style="edgeStyle=orthogonalEdgeStyle;rounded=0;orthogonalLoop=1;jettySize=auto;html=1;exitX=1;exitY=1;exitDx=0;exitDy=0;entryX=0.5;entryY=0;entryDx=0;entryDy=0;" parent="1" source="VBtEt0wRcP-LA_Z2vRGT-2" edge="1">
          <mxGeometry relative="1" as="geometry">
            <mxPoint x="470" y="50" as="targetPoint" />
          </mxGeometry>
        </mxCell>
        <mxCell id="VBtEt0wRcP-LA_Z2vRGT-55" style="edgeStyle=orthogonalEdgeStyle;rounded=0;orthogonalLoop=1;jettySize=auto;html=1;exitX=0;exitY=0.5;exitDx=0;exitDy=0;entryX=0;entryY=0;entryDx=50;entryDy=0;entryPerimeter=0;" parent="1" source="VBtEt0wRcP-LA_Z2vRGT-2" target="VBtEt0wRcP-LA_Z2vRGT-16" edge="1">
          <mxGeometry relative="1" as="geometry" />
        </mxCell>
        <mxCell id="VBtEt0wRcP-LA_Z2vRGT-56" style="edgeStyle=orthogonalEdgeStyle;rounded=0;orthogonalLoop=1;jettySize=auto;html=1;exitX=0;exitY=0.5;exitDx=0;exitDy=0;" parent="1" source="VBtEt0wRcP-LA_Z2vRGT-2" edge="1">
          <mxGeometry relative="1" as="geometry">
            <mxPoint x="-600" y="150" as="targetPoint" />
          </mxGeometry>
        </mxCell>
        <mxCell id="VBtEt0wRcP-LA_Z2vRGT-2" value="" style="rhombus;whiteSpace=wrap;html=1;" parent="1" vertex="1">
          <mxGeometry x="-50" y="-160" width="100" height="100" as="geometry" />
        </mxCell>
        <mxCell id="VBtEt0wRcP-LA_Z2vRGT-39" style="edgeStyle=orthogonalEdgeStyle;rounded=0;orthogonalLoop=1;jettySize=auto;html=1;exitX=0.16;exitY=0.55;exitDx=0;exitDy=0;exitPerimeter=0;entryX=1;entryY=0.5;entryDx=0;entryDy=0;" parent="1" source="VBtEt0wRcP-LA_Z2vRGT-4" target="VBtEt0wRcP-LA_Z2vRGT-2" edge="1">
          <mxGeometry relative="1" as="geometry" />
        </mxCell>
        <mxCell id="VBtEt0wRcP-LA_Z2vRGT-4" value="" style="ellipse;shape=cloud;whiteSpace=wrap;html=1;" parent="1" vertex="1">
          <mxGeometry x="370" y="-270" width="120" height="80" as="geometry" />
        </mxCell>
        <mxCell id="VBtEt0wRcP-LA_Z2vRGT-52" value="" style="edgeStyle=orthogonalEdgeStyle;rounded=0;orthogonalLoop=1;jettySize=auto;html=1;" parent="1" target="VBtEt0wRcP-LA_Z2vRGT-51" edge="1">
          <mxGeometry relative="1" as="geometry">
            <mxPoint x="470" y="130" as="sourcePoint" />
          </mxGeometry>
        </mxCell>
        <mxCell id="VBtEt0wRcP-LA_Z2vRGT-54" value="" style="edgeStyle=orthogonalEdgeStyle;rounded=0;orthogonalLoop=1;jettySize=auto;html=1;" parent="1" target="VBtEt0wRcP-LA_Z2vRGT-53" edge="1">
          <mxGeometry relative="1" as="geometry">
            <mxPoint x="580" y="130" as="sourcePoint" />
          </mxGeometry>
        </mxCell>
        <mxCell id="VBtEt0wRcP-LA_Z2vRGT-8" value="&lt;font style=&quot;font-size: 24px&quot;&gt;SUPER ADMIN&lt;br&gt;&lt;/font&gt;" style="shape=cube;whiteSpace=wrap;html=1;boundedLbl=1;backgroundOutline=1;darkOpacity=0.05;darkOpacity2=0.1;" parent="1" vertex="1">
          <mxGeometry x="-140" y="-440" width="230" height="160" as="geometry" />
        </mxCell>
        <mxCell id="VBtEt0wRcP-LA_Z2vRGT-45" style="edgeStyle=orthogonalEdgeStyle;rounded=0;orthogonalLoop=1;jettySize=auto;html=1;entryX=0.625;entryY=0.2;entryDx=0;entryDy=0;entryPerimeter=0;" parent="1" source="VBtEt0wRcP-LA_Z2vRGT-9" target="VBtEt0wRcP-LA_Z2vRGT-4" edge="1">
          <mxGeometry relative="1" as="geometry" />
        </mxCell>
        <mxCell id="VBtEt0wRcP-LA_Z2vRGT-9" value="Actor" style="shape=umlActor;verticalLabelPosition=bottom;verticalAlign=top;html=1;outlineConnect=0;" parent="1" vertex="1">
          <mxGeometry x="590" y="-330" width="20" height="40" as="geometry" />
        </mxCell>
        <mxCell id="VBtEt0wRcP-LA_Z2vRGT-47" style="edgeStyle=orthogonalEdgeStyle;rounded=0;orthogonalLoop=1;jettySize=auto;html=1;entryX=0.875;entryY=0.5;entryDx=0;entryDy=0;entryPerimeter=0;" parent="1" source="VBtEt0wRcP-LA_Z2vRGT-10" target="VBtEt0wRcP-LA_Z2vRGT-4" edge="1">
          <mxGeometry relative="1" as="geometry" />
        </mxCell>
        <mxCell id="VBtEt0wRcP-LA_Z2vRGT-10" value="Actor" style="shape=umlActor;verticalLabelPosition=bottom;verticalAlign=top;html=1;outlineConnect=0;" parent="1" vertex="1">
          <mxGeometry x="590" y="-250" width="20" height="40" as="geometry" />
        </mxCell>
        <mxCell id="VBtEt0wRcP-LA_Z2vRGT-48" style="edgeStyle=orthogonalEdgeStyle;rounded=0;orthogonalLoop=1;jettySize=auto;html=1;exitX=0;exitY=0.3333333333333333;exitDx=0;exitDy=0;exitPerimeter=0;entryX=0.683;entryY=0.975;entryDx=0;entryDy=0;entryPerimeter=0;" parent="1" source="VBtEt0wRcP-LA_Z2vRGT-11" target="VBtEt0wRcP-LA_Z2vRGT-4" edge="1">
          <mxGeometry relative="1" as="geometry" />
        </mxCell>
        <mxCell id="VBtEt0wRcP-LA_Z2vRGT-11" value="Actor" style="shape=umlActor;verticalLabelPosition=bottom;verticalAlign=top;html=1;outlineConnect=0;" parent="1" vertex="1">
          <mxGeometry x="590" y="-170" width="20" height="40" as="geometry" />
        </mxCell>
        <mxCell id="I3c4IDgRUZWC9DGg9QKX-10" style="edgeStyle=orthogonalEdgeStyle;rounded=0;orthogonalLoop=1;jettySize=auto;html=1;exitX=0;exitY=0;exitDx=70;exitDy=80;exitPerimeter=0;entryX=0.5;entryY=0;entryDx=0;entryDy=0;" edge="1" parent="1" source="VBtEt0wRcP-LA_Z2vRGT-16" target="VBtEt0wRcP-LA_Z2vRGT-17">
          <mxGeometry relative="1" as="geometry" />
        </mxCell>
        <mxCell id="VBtEt0wRcP-LA_Z2vRGT-16" value="" style="shape=cube;whiteSpace=wrap;html=1;boundedLbl=1;backgroundOutline=1;darkOpacity=0.05;darkOpacity2=0.1;" parent="1" vertex="1">
          <mxGeometry x="-120" y="160" width="120" height="80" as="geometry" />
        </mxCell>
        <mxCell id="I3c4IDgRUZWC9DGg9QKX-11" style="edgeStyle=orthogonalEdgeStyle;rounded=0;orthogonalLoop=1;jettySize=auto;html=1;" edge="1" parent="1" source="VBtEt0wRcP-LA_Z2vRGT-17">
          <mxGeometry relative="1" as="geometry">
            <mxPoint x="-50" y="540" as="targetPoint" />
          </mxGeometry>
        </mxCell>
        <mxCell id="VBtEt0wRcP-LA_Z2vRGT-17" value="" style="rhombus;whiteSpace=wrap;html=1;" parent="1" vertex="1">
          <mxGeometry x="-90" y="360" width="80" height="80" as="geometry" />
        </mxCell>
        <mxCell id="I3c4IDgRUZWC9DGg9QKX-6" style="edgeStyle=orthogonalEdgeStyle;rounded=0;orthogonalLoop=1;jettySize=auto;html=1;entryX=0.5;entryY=0;entryDx=0;entryDy=0;" edge="1" parent="1" source="VBtEt0wRcP-LA_Z2vRGT-29" target="VBtEt0wRcP-LA_Z2vRGT-30">
          <mxGeometry relative="1" as="geometry" />
        </mxCell>
        <mxCell id="VBtEt0wRcP-LA_Z2vRGT-29" value="" style="shape=cube;whiteSpace=wrap;html=1;boundedLbl=1;backgroundOutline=1;darkOpacity=0.05;darkOpacity2=0.1;" parent="1" vertex="1">
          <mxGeometry x="-655" y="150" width="120" height="80" as="geometry" />
        </mxCell>
        <mxCell id="I3c4IDgRUZWC9DGg9QKX-5" style="edgeStyle=orthogonalEdgeStyle;rounded=0;orthogonalLoop=1;jettySize=auto;html=1;entryX=0.5;entryY=0;entryDx=0;entryDy=0;" edge="1" parent="1" source="VBtEt0wRcP-LA_Z2vRGT-30" target="I3c4IDgRUZWC9DGg9QKX-3">
          <mxGeometry relative="1" as="geometry" />
        </mxCell>
        <mxCell id="VBtEt0wRcP-LA_Z2vRGT-30" value="" style="rhombus;whiteSpace=wrap;html=1;" parent="1" vertex="1">
          <mxGeometry x="-635" y="370" width="80" height="80" as="geometry" />
        </mxCell>
        <mxCell id="VBtEt0wRcP-LA_Z2vRGT-49" value="" style="shape=cylinder3;whiteSpace=wrap;html=1;boundedLbl=1;backgroundOutline=1;size=15;" parent="1" vertex="1">
          <mxGeometry x="340" y="210" width="60" height="60" as="geometry" />
        </mxCell>
        <mxCell id="VBtEt0wRcP-LA_Z2vRGT-50" value="" style="edgeStyle=orthogonalEdgeStyle;rounded=0;orthogonalLoop=1;jettySize=auto;html=1;" parent="1" target="VBtEt0wRcP-LA_Z2vRGT-49" edge="1">
          <mxGeometry relative="1" as="geometry">
            <mxPoint x="370" y="130" as="sourcePoint" />
          </mxGeometry>
        </mxCell>
        <mxCell id="VBtEt0wRcP-LA_Z2vRGT-51" value="" style="shape=cylinder3;whiteSpace=wrap;html=1;boundedLbl=1;backgroundOutline=1;size=15;" parent="1" vertex="1">
          <mxGeometry x="440" y="210" width="60" height="60" as="geometry" />
        </mxCell>
        <mxCell id="VBtEt0wRcP-LA_Z2vRGT-53" value="" style="shape=cylinder3;whiteSpace=wrap;html=1;boundedLbl=1;backgroundOutline=1;size=15;" parent="1" vertex="1">
          <mxGeometry x="550" y="210" width="60" height="60" as="geometry" />
        </mxCell>
        <mxCell id="I3c4IDgRUZWC9DGg9QKX-7" style="edgeStyle=orthogonalEdgeStyle;rounded=0;orthogonalLoop=1;jettySize=auto;html=1;" edge="1" parent="1" source="VBtEt0wRcP-LA_Z2vRGT-57" target="VBtEt0wRcP-LA_Z2vRGT-30">
          <mxGeometry relative="1" as="geometry" />
        </mxCell>
        <mxCell id="VBtEt0wRcP-LA_Z2vRGT-57" value="" style="ellipse;shape=cloud;whiteSpace=wrap;html=1;" parent="1" vertex="1">
          <mxGeometry x="-480" y="370" width="120" height="80" as="geometry" />
        </mxCell>
        <mxCell id="VBtEt0wRcP-LA_Z2vRGT-58" style="edgeStyle=orthogonalEdgeStyle;rounded=0;orthogonalLoop=1;jettySize=auto;html=1;entryX=0.625;entryY=0.2;entryDx=0;entryDy=0;entryPerimeter=0;" parent="1" source="VBtEt0wRcP-LA_Z2vRGT-59" target="VBtEt0wRcP-LA_Z2vRGT-57" edge="1">
          <mxGeometry relative="1" as="geometry" />
        </mxCell>
        <mxCell id="VBtEt0wRcP-LA_Z2vRGT-59" value="Actor" style="shape=umlActor;verticalLabelPosition=bottom;verticalAlign=top;html=1;outlineConnect=0;" parent="1" vertex="1">
          <mxGeometry x="-260" y="310" width="20" height="40" as="geometry" />
        </mxCell>
        <mxCell id="VBtEt0wRcP-LA_Z2vRGT-60" style="edgeStyle=orthogonalEdgeStyle;rounded=0;orthogonalLoop=1;jettySize=auto;html=1;entryX=0.875;entryY=0.5;entryDx=0;entryDy=0;entryPerimeter=0;" parent="1" source="VBtEt0wRcP-LA_Z2vRGT-61" target="VBtEt0wRcP-LA_Z2vRGT-57" edge="1">
          <mxGeometry relative="1" as="geometry" />
        </mxCell>
        <mxCell id="VBtEt0wRcP-LA_Z2vRGT-61" value="Actor" style="shape=umlActor;verticalLabelPosition=bottom;verticalAlign=top;html=1;outlineConnect=0;" parent="1" vertex="1">
          <mxGeometry x="-260" y="390" width="20" height="40" as="geometry" />
        </mxCell>
        <mxCell id="VBtEt0wRcP-LA_Z2vRGT-62" style="edgeStyle=orthogonalEdgeStyle;rounded=0;orthogonalLoop=1;jettySize=auto;html=1;exitX=0;exitY=0.3333333333333333;exitDx=0;exitDy=0;exitPerimeter=0;entryX=0.683;entryY=0.975;entryDx=0;entryDy=0;entryPerimeter=0;" parent="1" source="VBtEt0wRcP-LA_Z2vRGT-63" target="VBtEt0wRcP-LA_Z2vRGT-57" edge="1">
          <mxGeometry relative="1" as="geometry" />
        </mxCell>
        <mxCell id="VBtEt0wRcP-LA_Z2vRGT-63" value="Actor" style="shape=umlActor;verticalLabelPosition=bottom;verticalAlign=top;html=1;outlineConnect=0;" parent="1" vertex="1">
          <mxGeometry x="-260" y="470" width="20" height="40" as="geometry" />
        </mxCell>
        <mxCell id="I3c4IDgRUZWC9DGg9QKX-8" style="edgeStyle=orthogonalEdgeStyle;rounded=0;orthogonalLoop=1;jettySize=auto;html=1;" edge="1" parent="1" source="VBtEt0wRcP-LA_Z2vRGT-64" target="VBtEt0wRcP-LA_Z2vRGT-17">
          <mxGeometry relative="1" as="geometry" />
        </mxCell>
        <mxCell id="VBtEt0wRcP-LA_Z2vRGT-64" value="" style="ellipse;shape=cloud;whiteSpace=wrap;html=1;" parent="1" vertex="1">
          <mxGeometry x="90" y="360" width="120" height="80" as="geometry" />
        </mxCell>
        <mxCell id="VBtEt0wRcP-LA_Z2vRGT-65" style="edgeStyle=orthogonalEdgeStyle;rounded=0;orthogonalLoop=1;jettySize=auto;html=1;entryX=0.625;entryY=0.2;entryDx=0;entryDy=0;entryPerimeter=0;" parent="1" source="VBtEt0wRcP-LA_Z2vRGT-66" target="VBtEt0wRcP-LA_Z2vRGT-64" edge="1">
          <mxGeometry relative="1" as="geometry" />
        </mxCell>
        <mxCell id="VBtEt0wRcP-LA_Z2vRGT-66" value="Actor" style="shape=umlActor;verticalLabelPosition=bottom;verticalAlign=top;html=1;outlineConnect=0;" parent="1" vertex="1">
          <mxGeometry x="310" y="300" width="20" height="40" as="geometry" />
        </mxCell>
        <mxCell id="VBtEt0wRcP-LA_Z2vRGT-67" style="edgeStyle=orthogonalEdgeStyle;rounded=0;orthogonalLoop=1;jettySize=auto;html=1;entryX=0.875;entryY=0.5;entryDx=0;entryDy=0;entryPerimeter=0;" parent="1" source="VBtEt0wRcP-LA_Z2vRGT-68" target="VBtEt0wRcP-LA_Z2vRGT-64" edge="1">
          <mxGeometry relative="1" as="geometry" />
        </mxCell>
        <mxCell id="VBtEt0wRcP-LA_Z2vRGT-68" value="Actor" style="shape=umlActor;verticalLabelPosition=bottom;verticalAlign=top;html=1;outlineConnect=0;" parent="1" vertex="1">
          <mxGeometry x="310" y="380" width="20" height="40" as="geometry" />
        </mxCell>
        <mxCell id="VBtEt0wRcP-LA_Z2vRGT-69" style="edgeStyle=orthogonalEdgeStyle;rounded=0;orthogonalLoop=1;jettySize=auto;html=1;exitX=0;exitY=0.3333333333333333;exitDx=0;exitDy=0;exitPerimeter=0;entryX=0.683;entryY=0.975;entryDx=0;entryDy=0;entryPerimeter=0;" parent="1" source="VBtEt0wRcP-LA_Z2vRGT-70" target="VBtEt0wRcP-LA_Z2vRGT-64" edge="1">
          <mxGeometry relative="1" as="geometry" />
        </mxCell>
        <mxCell id="VBtEt0wRcP-LA_Z2vRGT-70" value="Actor" style="shape=umlActor;verticalLabelPosition=bottom;verticalAlign=top;html=1;outlineConnect=0;" parent="1" vertex="1">
          <mxGeometry x="310" y="460" width="20" height="40" as="geometry" />
        </mxCell>
        <mxCell id="VBtEt0wRcP-LA_Z2vRGT-90" value="" style="edgeStyle=orthogonalEdgeStyle;rounded=0;orthogonalLoop=1;jettySize=auto;html=1;" parent="1" target="VBtEt0wRcP-LA_Z2vRGT-96" edge="1">
          <mxGeometry relative="1" as="geometry">
            <mxPoint x="-40" y="650" as="sourcePoint" />
          </mxGeometry>
        </mxCell>
        <mxCell id="VBtEt0wRcP-LA_Z2vRGT-92" value="" style="edgeStyle=orthogonalEdgeStyle;rounded=0;orthogonalLoop=1;jettySize=auto;html=1;" parent="1" target="VBtEt0wRcP-LA_Z2vRGT-97" edge="1">
          <mxGeometry relative="1" as="geometry">
            <mxPoint x="70" y="650" as="sourcePoint" />
          </mxGeometry>
        </mxCell>
        <mxCell id="VBtEt0wRcP-LA_Z2vRGT-94" value="" style="shape=cylinder3;whiteSpace=wrap;html=1;boundedLbl=1;backgroundOutline=1;size=15;" parent="1" vertex="1">
          <mxGeometry x="-170" y="730" width="60" height="60" as="geometry" />
        </mxCell>
        <mxCell id="VBtEt0wRcP-LA_Z2vRGT-95" value="" style="edgeStyle=orthogonalEdgeStyle;rounded=0;orthogonalLoop=1;jettySize=auto;html=1;" parent="1" target="VBtEt0wRcP-LA_Z2vRGT-94" edge="1">
          <mxGeometry relative="1" as="geometry">
            <mxPoint x="-140" y="650" as="sourcePoint" />
          </mxGeometry>
        </mxCell>
        <mxCell id="VBtEt0wRcP-LA_Z2vRGT-96" value="" style="shape=cylinder3;whiteSpace=wrap;html=1;boundedLbl=1;backgroundOutline=1;size=15;" parent="1" vertex="1">
          <mxGeometry x="-70" y="730" width="60" height="60" as="geometry" />
        </mxCell>
        <mxCell id="VBtEt0wRcP-LA_Z2vRGT-97" value="" style="shape=cylinder3;whiteSpace=wrap;html=1;boundedLbl=1;backgroundOutline=1;size=15;" parent="1" vertex="1">
          <mxGeometry x="40" y="730" width="60" height="60" as="geometry" />
        </mxCell>
        <mxCell id="VBtEt0wRcP-LA_Z2vRGT-99" value="" style="edgeStyle=orthogonalEdgeStyle;rounded=0;orthogonalLoop=1;jettySize=auto;html=1;" parent="1" target="VBtEt0wRcP-LA_Z2vRGT-105" edge="1">
          <mxGeometry relative="1" as="geometry">
            <mxPoint x="-595" y="630" as="sourcePoint" />
          </mxGeometry>
        </mxCell>
        <mxCell id="VBtEt0wRcP-LA_Z2vRGT-101" value="" style="edgeStyle=orthogonalEdgeStyle;rounded=0;orthogonalLoop=1;jettySize=auto;html=1;" parent="1" target="VBtEt0wRcP-LA_Z2vRGT-106" edge="1">
          <mxGeometry relative="1" as="geometry">
            <mxPoint x="-485" y="630" as="sourcePoint" />
          </mxGeometry>
        </mxCell>
        <mxCell id="VBtEt0wRcP-LA_Z2vRGT-103" value="" style="shape=cylinder3;whiteSpace=wrap;html=1;boundedLbl=1;backgroundOutline=1;size=15;" parent="1" vertex="1">
          <mxGeometry x="-725" y="710" width="60" height="60" as="geometry" />
        </mxCell>
        <mxCell id="VBtEt0wRcP-LA_Z2vRGT-104" value="" style="edgeStyle=orthogonalEdgeStyle;rounded=0;orthogonalLoop=1;jettySize=auto;html=1;" parent="1" target="VBtEt0wRcP-LA_Z2vRGT-103" edge="1">
          <mxGeometry relative="1" as="geometry">
            <mxPoint x="-695" y="630" as="sourcePoint" />
          </mxGeometry>
        </mxCell>
        <mxCell id="VBtEt0wRcP-LA_Z2vRGT-105" value="" style="shape=cylinder3;whiteSpace=wrap;html=1;boundedLbl=1;backgroundOutline=1;size=15;" parent="1" vertex="1">
          <mxGeometry x="-625" y="710" width="60" height="60" as="geometry" />
        </mxCell>
        <mxCell id="VBtEt0wRcP-LA_Z2vRGT-106" value="" style="shape=cylinder3;whiteSpace=wrap;html=1;boundedLbl=1;backgroundOutline=1;size=15;" parent="1" vertex="1">
          <mxGeometry x="-515" y="710" width="60" height="60" as="geometry" />
        </mxCell>
        <mxCell id="I3c4IDgRUZWC9DGg9QKX-1" value="&lt;font style=&quot;font-size: 24px&quot;&gt;ADMIN seed code&lt;br&gt;&lt;/font&gt;" style="rounded=0;whiteSpace=wrap;html=1;" vertex="1" parent="1">
          <mxGeometry x="320" y="50" width="310" height="80" as="geometry" />
        </mxCell>
        <mxCell id="I3c4IDgRUZWC9DGg9QKX-2" value="&lt;font style=&quot;font-size: 24px&quot;&gt;Reseller seed code&lt;/font&gt;" style="rounded=0;whiteSpace=wrap;html=1;" vertex="1" parent="1">
          <mxGeometry x="-170" y="550" width="270" height="100" as="geometry" />
        </mxCell>
        <mxCell id="I3c4IDgRUZWC9DGg9QKX-3" value="&lt;font style=&quot;font-size: 24px&quot;&gt;Reseller Seed Code&lt;/font&gt;" style="rounded=0;whiteSpace=wrap;html=1;" vertex="1" parent="1">
          <mxGeometry x="-740" y="540" width="290" height="90" as="geometry" />
        </mxCell>
        <mxCell id="I3c4IDgRUZWC9DGg9QKX-12" value="&lt;font style=&quot;font-size: 18px&quot;&gt;Super Admin Micoservices&lt;br&gt;&lt;/font&gt;" style="text;html=1;align=center;verticalAlign=middle;resizable=0;points=[];autosize=1;" vertex="1" parent="1">
          <mxGeometry x="-290" y="-220" width="260" height="20" as="geometry" />
        </mxCell>
        <mxCell id="I3c4IDgRUZWC9DGg9QKX-13" value="&lt;font style=&quot;font-size: 18px&quot;&gt;Admin API Gate way&lt;br&gt;&lt;/font&gt;" style="text;html=1;align=center;verticalAlign=middle;resizable=0;points=[];autosize=1;" vertex="1" parent="1">
          <mxGeometry x="-30" y="-40" width="200" height="20" as="geometry" />
        </mxCell>
        <mxCell id="I3c4IDgRUZWC9DGg9QKX-14" value="&lt;font style=&quot;font-size: 24px&quot;&gt;ADMIN CLIENT &lt;/font&gt;" style="text;html=1;align=center;verticalAlign=middle;resizable=0;points=[];autosize=1;rotation=90;" vertex="1" parent="1">
          <mxGeometry x="580" y="-240" width="210" height="20" as="geometry" />
        </mxCell>
        <mxCell id="I3c4IDgRUZWC9DGg9QKX-15" value="&lt;div&gt;&lt;font style=&quot;font-size: 24px&quot;&gt;ADMIN CLINET DBS&quot;S&lt;/font&gt;&lt;/div&gt;&lt;div&gt;&lt;font size=&quot;3&quot;&gt;&lt;br&gt;&lt;/font&gt;&lt;/div&gt;" style="text;html=1;align=center;verticalAlign=middle;resizable=0;points=[];autosize=1;rotation=90;" vertex="1" parent="1">
          <mxGeometry x="535" y="80" width="300" height="40" as="geometry" />
        </mxCell>
        <mxCell id="I3c4IDgRUZWC9DGg9QKX-16" value="&lt;div&gt;&lt;font style=&quot;font-size: 24px&quot;&gt;Reseller 1&lt;/font&gt;&lt;/div&gt;&lt;div&gt;&lt;font size=&quot;3&quot;&gt;&lt;br&gt;&lt;/font&gt;&lt;/div&gt;" style="text;html=1;align=center;verticalAlign=middle;resizable=0;points=[];autosize=1;" vertex="1" parent="1">
          <mxGeometry x="-590" y="100" width="140" height="40" as="geometry" />
        </mxCell>
        <mxCell id="I3c4IDgRUZWC9DGg9QKX-17" value="&lt;font style=&quot;font-size: 24px&quot;&gt;Reseller 2&lt;br&gt;&lt;/font&gt;" style="text;html=1;align=center;verticalAlign=middle;resizable=0;points=[];autosize=1;" vertex="1" parent="1">
          <mxGeometry x="-60" y="110" width="140" height="20" as="geometry" />
        </mxCell>
        <mxCell id="I3c4IDgRUZWC9DGg9QKX-18" value="&lt;div&gt;&lt;font style=&quot;font-size: 18px&quot;&gt;Reseller&lt;/font&gt;&lt;/div&gt;&lt;div&gt;&lt;font style=&quot;font-size: 18px&quot;&gt; API Gate way&lt;/font&gt;&lt;/div&gt;" style="text;html=1;align=center;verticalAlign=middle;resizable=0;points=[];autosize=1;" vertex="1" parent="1">
          <mxGeometry x="-780" y="350" width="140" height="40" as="geometry" />
        </mxCell>
        <mxCell id="I3c4IDgRUZWC9DGg9QKX-19" value="&lt;div&gt;&lt;font style=&quot;font-size: 18px&quot;&gt;Reseller&lt;/font&gt;&lt;/div&gt;&lt;div&gt;&lt;font style=&quot;font-size: 18px&quot;&gt; API Gate way&lt;/font&gt;&lt;/div&gt;" style="text;html=1;align=center;verticalAlign=middle;resizable=0;points=[];autosize=1;" vertex="1" parent="1">
          <mxGeometry x="-210" y="320" width="140" height="40" as="geometry" />
        </mxCell>
        <mxCell id="I3c4IDgRUZWC9DGg9QKX-20" value="&lt;font style=&quot;font-size: 18px&quot;&gt;RESELLER CLIENT &lt;/font&gt;" style="text;html=1;align=center;verticalAlign=middle;resizable=0;points=[];autosize=1;rotation=90;" vertex="1" parent="1">
          <mxGeometry x="-310" y="480" width="200" height="20" as="geometry" />
        </mxCell>
        <mxCell id="I3c4IDgRUZWC9DGg9QKX-21" value="&lt;font style=&quot;font-size: 18px&quot;&gt;RESELLER CLIENT &lt;/font&gt;" style="text;html=1;align=center;verticalAlign=middle;resizable=0;points=[];autosize=1;rotation=90;" vertex="1" parent="1">
          <mxGeometry x="280" y="460" width="200" height="20" as="geometry" />
        </mxCell>
        <mxCell id="I3c4IDgRUZWC9DGg9QKX-22" value="&lt;div&gt;&lt;font style=&quot;font-size: 18px&quot;&gt;Reseller CLIENT DBS&quot;S&lt;/font&gt;&lt;/div&gt;&lt;div&gt;&lt;font size=&quot;3&quot;&gt;&lt;br&gt;&lt;/font&gt;&lt;/div&gt;" style="text;html=1;align=center;verticalAlign=middle;resizable=0;points=[];autosize=1;rotation=0;" vertex="1" parent="1">
          <mxGeometry x="-145" y="830" width="240" height="40" as="geometry" />
        </mxCell>
        <mxCell id="I3c4IDgRUZWC9DGg9QKX-23" value="&lt;div&gt;&lt;font style=&quot;font-size: 18px&quot;&gt;Reseller CLIENT DBS&quot;S&lt;/font&gt;&lt;/div&gt;&lt;div&gt;&lt;font size=&quot;3&quot;&gt;&lt;br&gt;&lt;/font&gt;&lt;/div&gt;" style="text;html=1;align=center;verticalAlign=middle;resizable=0;points=[];autosize=1;rotation=0;" vertex="1" parent="1">
          <mxGeometry x="-715" y="810" width="240" height="40" as="geometry" />
        </mxCell>
        <mxCell id="I3c4IDgRUZWC9DGg9QKX-24" value="&lt;font style=&quot;font-size: 18px&quot;&gt;Cloud&lt;/font&gt;" style="text;html=1;align=center;verticalAlign=middle;resizable=0;points=[];autosize=1;" vertex="1" parent="1">
          <mxGeometry x="395" y="-240" width="70" height="20" as="geometry" />
        </mxCell>
        <mxCell id="I3c4IDgRUZWC9DGg9QKX-25" value="&lt;font style=&quot;font-size: 18px&quot;&gt;Cloud&lt;/font&gt;" style="text;html=1;align=center;verticalAlign=middle;resizable=0;points=[];autosize=1;" vertex="1" parent="1">
          <mxGeometry x="-450" y="400" width="70" height="20" as="geometry" />
        </mxCell>
        <mxCell id="I3c4IDgRUZWC9DGg9QKX-26" value="&lt;font style=&quot;font-size: 18px&quot;&gt;Cloud&lt;/font&gt;" style="text;html=1;align=center;verticalAlign=middle;resizable=0;points=[];autosize=1;" vertex="1" parent="1">
          <mxGeometry x="115" y="390" width="70" height="20" as="geometry" />
        </mxCell>
        <mxCell id="I3c4IDgRUZWC9DGg9QKX-27" value="&lt;font style=&quot;font-size: 36px&quot;&gt;Tier&lt;/font&gt;&lt;font style=&quot;font-size: 36px&quot;&gt; 1&lt;br&gt;&lt;/font&gt;" style="text;html=1;align=center;verticalAlign=middle;resizable=0;points=[];autosize=1;" vertex="1" parent="1">
          <mxGeometry x="-930" y="-360" width="120" height="30" as="geometry" />
        </mxCell>
        <mxCell id="I3c4IDgRUZWC9DGg9QKX-28" value="&lt;font style=&quot;font-size: 36px&quot;&gt;Tier&lt;/font&gt;&lt;font style=&quot;font-size: 36px&quot;&gt; 3&lt;br&gt;&lt;/font&gt;" style="text;html=1;align=center;verticalAlign=middle;resizable=0;points=[];autosize=1;" vertex="1" parent="1">
          <mxGeometry x="-930" y="570" width="120" height="30" as="geometry" />
        </mxCell>
        <mxCell id="I3c4IDgRUZWC9DGg9QKX-29" value="&lt;font style=&quot;font-size: 36px&quot;&gt;Tier&lt;/font&gt;&lt;font style=&quot;font-size: 36px&quot;&gt; 2&lt;br&gt;&lt;/font&gt;" style="text;html=1;align=center;verticalAlign=middle;resizable=0;points=[];autosize=1;" vertex="1" parent="1">
          <mxGeometry x="-930" y="160" width="120" height="30" as="geometry" />
        </mxCell>
        <mxCell id="I3c4IDgRUZWC9DGg9QKX-30" value="&lt;font style=&quot;font-size: 48px&quot;&gt;&lt;font face=&quot;Courier New&quot;&gt;SAAS 3-Tier Microservices Architecture Diagram &lt;/font&gt;&lt;br&gt;&lt;/font&gt;" style="text;html=1;align=center;verticalAlign=middle;resizable=0;points=[];autosize=1;fillColor=#FFFFFF;strokeColor=#FFFFFF;" vertex="1" parent="1">
          <mxGeometry x="-710" y="-600" width="1340" height="30" as="geometry" />
        </mxCell>
      </root>
    </mxGraphModel>
  </diagram>
</mxfile>
